<?xml version="1.0" standalone="no"?><!DOCTYPE svg PUBLIC "-//W3C//DTD SVG 1.1//EN" "http://www.w3.org/Graphics/SVG/1.1/DTD/svg11.dtd"><svg t="1572950061954" class="icon" viewBox="0 0 1024 1024" version="1.1" xmlns="http://www.w3.org/2000/svg" p-id="3246" xmlns:xlink="http://www.w3.org/1999/xlink" width="16" height="16"><defs><style type="text/css"></style></defs><path d="M976 736a47.84 47.84 0 0 0-33.936 14.064L848 844.128l-30.064-30.064a48 48 0 1 0-67.872 67.872l64 64c8.688 8.688 20.688 14.064 33.936 14.064s25.248-5.376 33.936-14.064l128-128A48 48 0 0 0 976 736z m0-560H383.712L288 80H48a48 48 0 0 0-48 48v144h1024v-48a48 48 0 0 0-48-48zM0 832a48 48 0 0 0 48 48h645.872A95.632 95.632 0 0 1 688 848a96 96 0 0 1 96-96c24.528 0 46.656 9.472 63.632 24.608l60.496-60.496A95.696 95.696 0 0 1 976 688c17.6 0 33.808 5.056 48 13.312V320H0v512z" fill="#19fa28" p-id="3247"></path></svg>